<svg width="38" height="38" viewBox="0 0 38 38" fill="none" xmlns="http://www.w3.org/2000/svg">
<g clip-path="url(#clip0)">
<rect y="0.000244141" width="38" height="38" rx="19" fill="url(#paint0_linear)"/>
<path d="M26.5 14.3127H21.9375V15.4199H26.5V14.3127ZM24.25 18.1163C23.7143 18.1163 23.2798 18.2741 22.9464 18.5895C22.6131 18.8991 22.4286 19.3217 22.3929 19.8574H26.0357C25.9286 18.6967 25.3333 18.1163 24.25 18.1163ZM24.3929 23.3395C24.7679 23.3395 25.131 23.2443 25.4821 23.0538C25.8333 22.8633 26.0595 22.6044 26.1607 22.277H28.1339C27.5387 24.1044 26.2679 25.0181 24.3214 25.0181C23.0476 25.0181 22.0327 24.6252 21.2768 23.8395C20.5268 23.0538 20.1518 22.0211 20.1518 20.7413C20.1518 19.5032 20.5387 18.4764 21.3125 17.661C22.0923 16.8395 23.0952 16.4288 24.3214 16.4288C25.1429 16.4288 25.8571 16.6312 26.4643 17.036C27.0774 17.4407 27.5327 17.9735 27.8304 18.6342C28.1339 19.2949 28.2857 20.033 28.2857 20.8485C28.2857 20.9496 28.2798 21.0895 28.2679 21.2681H22.3929C22.3929 21.9288 22.5625 22.4407 22.9018 22.8038C23.247 23.161 23.744 23.3395 24.3929 23.3395ZM12.4732 22.8931H15.1161C16.3363 22.8931 16.9464 22.3961 16.9464 21.402C16.9464 20.3306 16.3542 19.7949 15.1696 19.7949H12.4732V22.8931ZM12.4732 18.0985H14.9821C15.4464 18.0985 15.8125 17.9913 16.0804 17.777C16.3542 17.5568 16.4911 17.2175 16.4911 16.7592C16.4911 15.902 15.9256 15.4735 14.7946 15.4735H12.4732V18.0985ZM10 13.5538H15.3036C15.8214 13.5538 16.2827 13.5955 16.6875 13.6788C17.0923 13.7621 17.4673 13.905 17.8125 14.1074C18.1637 14.3038 18.4315 14.5895 18.6161 14.9645C18.8065 15.3395 18.9018 15.7979 18.9018 16.3395C18.9018 17.4169 18.3899 18.1996 17.3661 18.6877C18.0446 18.8782 18.5565 19.2205 18.9018 19.7145C19.247 20.2086 19.4196 20.8157 19.4196 21.536C19.4196 21.9824 19.3452 22.3901 19.1964 22.7592C19.0536 23.1223 18.8571 23.4288 18.6071 23.6788C18.3631 23.9288 18.0714 24.1401 17.7321 24.3127C17.3929 24.4854 17.0327 24.6104 16.6518 24.6877C16.2708 24.7651 15.872 24.8038 15.4554 24.8038H10V13.5538Z" fill="white"/>
</g>
<defs>
<linearGradient id="paint0_linear" x1="19.3522" y1="-16.5986" x2="-15.8944" y2="18.648" gradientUnits="userSpaceOnUse">
<stop stop-color="#1769FF"/>
<stop offset="1" stop-color="#003EB0"/>
</linearGradient>
<clipPath id="clip0">
<rect y="0.000244141" width="38" height="38" fill="white"/>
</clipPath>
</defs>
</svg>
