<svg width="38" height="38" viewBox="0 0 38 38" fill="none" xmlns="http://www.w3.org/2000/svg">
<g clip-path="url(#clip0)">
<rect y="0.000244141" width="38" height="38" rx="19" fill="url(#paint0_linear)"/>
<path d="M21.1429 24.6788C20.8929 23.2443 20.4762 21.7621 19.8929 20.2324H19.875L19.8571 20.2413C19.7619 20.277 19.6339 20.3276 19.4732 20.3931C19.3125 20.4526 19.0119 20.5985 18.5714 20.8306C18.131 21.0568 17.7232 21.3008 17.3482 21.5627C16.9732 21.8187 16.5833 22.158 16.1786 22.5806C15.7738 23.0032 15.4673 23.4437 15.2589 23.902L15.125 23.8038C16.2202 24.6967 17.4643 25.1431 18.8571 25.1431C19.6429 25.1431 20.4048 24.9883 21.1429 24.6788ZM19.4911 19.2592C19.3661 18.9675 19.2083 18.6371 19.0179 18.2681C17.1667 18.8217 15.1637 19.0985 13.0089 19.0985C13.003 19.1401 13 19.2026 13 19.286C13 20.0241 13.131 20.7294 13.3929 21.402C13.6548 22.0687 14.0238 22.6669 14.5 23.1967C14.7976 22.6669 15.1637 22.1729 15.5982 21.7145C16.0387 21.2502 16.4643 20.8782 16.875 20.5985C17.2857 20.3187 17.6726 20.0776 18.0357 19.8752C18.4048 19.6729 18.7024 19.53 18.9286 19.4467L19.2589 19.3306C19.2827 19.3246 19.3214 19.3157 19.375 19.3038C19.4286 19.286 19.4673 19.2711 19.4911 19.2592ZM18.5357 17.3663C17.8214 16.0985 17.0952 14.9735 16.3571 13.9913C15.5357 14.3782 14.8393 14.9318 14.2679 15.652C13.6964 16.3723 13.3155 17.1818 13.125 18.0806C14.9226 18.0806 16.7262 17.8425 18.5357 17.3663ZM24.6429 20.2145C23.3929 19.8574 22.1756 19.7711 20.9911 19.9556C21.5089 21.3782 21.8899 22.7741 22.1339 24.1431C22.7946 23.6967 23.3452 23.1342 23.7857 22.4556C24.2262 21.7711 24.5119 21.0241 24.6429 20.2145ZM17.4554 13.5985C17.4494 13.5985 17.4435 13.6014 17.4375 13.6074C17.4435 13.6014 17.4494 13.5985 17.4554 13.5985ZM22.7232 14.8931C21.622 13.9169 20.3333 13.4288 18.8571 13.4288C18.4048 13.4288 17.9435 13.4854 17.4732 13.5985C18.253 14.6104 18.9851 15.7473 19.6696 17.0092C20.0804 16.8544 20.4673 16.6758 20.8304 16.4735C21.1935 16.2651 21.4792 16.0806 21.6875 15.9199C21.9018 15.7592 22.0982 15.5895 22.2768 15.411C22.4554 15.2324 22.5655 15.1133 22.6071 15.0538C22.6548 14.9883 22.6935 14.9348 22.7232 14.8931ZM24.7143 19.2235C24.6964 17.8425 24.253 16.6223 23.3839 15.5627L23.375 15.5717C23.3214 15.6431 23.2649 15.7175 23.2054 15.7949C23.1458 15.8663 23.0149 15.9973 22.8125 16.1877C22.6161 16.3782 22.4048 16.5598 22.1786 16.7324C21.9583 16.8991 21.6607 17.0925 21.2857 17.3127C20.9167 17.527 20.5268 17.7175 20.1161 17.8842C20.2649 18.1996 20.3958 18.4824 20.5089 18.7324C20.5208 18.7621 20.5387 18.8127 20.5625 18.8842C20.5923 18.9556 20.6161 19.0062 20.6339 19.036C20.8482 19.0062 21.0685 18.9854 21.2946 18.9735C21.5268 18.9616 21.747 18.9556 21.9554 18.9556C22.1637 18.9556 22.369 18.9616 22.5714 18.9735C22.7738 18.9794 22.9643 18.9913 23.1429 19.0092C23.3214 19.0211 23.4881 19.036 23.6429 19.0538C23.8036 19.0717 23.9464 19.0925 24.0714 19.1163C24.2024 19.1342 24.3125 19.152 24.4018 19.1699C24.4911 19.1818 24.5655 19.1937 24.625 19.2056L24.7143 19.2235ZM24.7946 15.8485C25.4077 16.8961 25.7143 18.0419 25.7143 19.286C25.7143 20.53 25.4077 21.6788 24.7946 22.7324C24.1815 23.78 23.3482 24.6104 22.2946 25.2235C21.247 25.8366 20.1012 26.1431 18.8571 26.1431C17.6131 26.1431 16.4643 25.8366 15.4107 25.2235C14.3631 24.6104 13.5327 23.78 12.9196 22.7324C12.3065 21.6788 12 20.53 12 19.286C12 18.0419 12.3065 16.8961 12.9196 15.8485C13.5327 14.7949 14.3631 13.9616 15.4107 13.3485C16.4643 12.7354 17.6131 12.4288 18.8571 12.4288C20.1012 12.4288 21.247 12.7354 22.2946 13.3485C23.3482 13.9616 24.1815 14.7949 24.7946 15.8485Z" fill="white"/>
</g>
<defs>
<linearGradient id="paint0_linear" x1="19.3522" y1="-16.5986" x2="-15.8944" y2="18.648" gradientUnits="userSpaceOnUse">
<stop stop-color="#EA4C89"/>
<stop offset="0.981688" stop-color="#BA1655"/>
</linearGradient>
<clipPath id="clip0">
<rect y="0.000244141" width="38" height="38" fill="white"/>
</clipPath>
</defs>
</svg>
