<svg width="38" height="38" viewBox="0 0 38 38" fill="none" xmlns="http://www.w3.org/2000/svg">
<g clip-path="url(#clip0)">
<rect y="0.000244141" width="38" height="38" rx="19" fill="url(#paint0_linear)"/>
<path d="M14.1161 23.911H16.1786V17.7145H14.1161V23.911ZM16.3125 15.8038C16.3065 15.4943 16.1994 15.2383 15.9911 15.036C15.7827 14.8336 15.506 14.7324 15.1607 14.7324C14.8155 14.7324 14.5327 14.8336 14.3125 15.036C14.0982 15.2383 13.9911 15.4943 13.9911 15.8038C13.9911 16.1074 14.0952 16.3633 14.3036 16.5717C14.5179 16.7741 14.7946 16.8752 15.1339 16.8752H15.1429C15.494 16.8752 15.7768 16.7741 15.9911 16.5717C16.2054 16.3633 16.3125 16.1074 16.3125 15.8038ZM21.5357 23.911H23.5982V20.3574C23.5982 19.4407 23.381 18.7473 22.9464 18.277C22.5119 17.8068 21.9375 17.5717 21.2232 17.5717C20.4137 17.5717 19.7917 17.9199 19.3571 18.6163H19.375V17.7145H17.3125C17.3304 18.1074 17.3304 20.1729 17.3125 23.911H19.375V20.4467C19.375 20.2205 19.3958 20.0538 19.4375 19.9467C19.5268 19.7383 19.6607 19.5627 19.8393 19.4199C20.0179 19.2711 20.2381 19.1967 20.5 19.1967C21.1905 19.1967 21.5357 19.6639 21.5357 20.5985V23.911ZM25.7143 15.0002V23.5717C25.7143 24.28 25.4613 24.8842 24.9554 25.3842C24.4554 25.8901 23.8512 26.1431 23.1429 26.1431H14.5714C13.8631 26.1431 13.256 25.8901 12.75 25.3842C12.25 24.8842 12 24.28 12 23.5717V15.0002C12 14.2919 12.25 13.6877 12.75 13.1877C13.256 12.6818 13.8631 12.4288 14.5714 12.4288H23.1429C23.8512 12.4288 24.4554 12.6818 24.9554 13.1877C25.4613 13.6877 25.7143 14.2919 25.7143 15.0002Z" fill="white"/>
</g>
<defs>
<linearGradient id="paint0_linear" x1="18.4878" y1="-17.463" x2="-18.4878" y2="19.5125" gradientUnits="userSpaceOnUse">
<stop stop-color="#0077B5"/>
<stop offset="0.991013" stop-color="#00344F"/>
</linearGradient>
<clipPath id="clip0">
<rect y="0.000244141" width="38" height="38" fill="white"/>
</clipPath>
</defs>
</svg>
