<svg width="38" height="38" viewBox="0 0 38 38" fill="none" xmlns="http://www.w3.org/2000/svg">
<path d="M37.5 19C37.5 29.2173 29.2173 37.5 19 37.5C8.78273 37.5 0.5 29.2173 0.5 19C0.5 8.78273 8.78273 0.5 19 0.5C29.2173 0.5 37.5 8.78273 37.5 19Z" stroke="white"/>
<path d="M24.1429 13.4286C24.8512 13.4286 25.4554 13.6815 25.9554 14.1875C26.4613 14.6875 26.7143 15.2917 26.7143 16V24.5714C26.7143 25.2798 26.4613 25.8839 25.9554 26.3839C25.4554 26.8899 24.8512 27.1429 24.1429 27.1429H22.4643V21.8304H24.2411L24.5089 19.7589H22.4643V18.4375C22.4643 18.1042 22.5327 17.8542 22.6696 17.6875C22.8125 17.5208 23.0863 17.4375 23.4911 17.4375L24.5804 17.4286V15.5804C24.2054 15.5268 23.6756 15.5 22.9911 15.5C22.1815 15.5 21.5327 15.7381 21.0446 16.2143C20.5625 16.6905 20.3214 17.3631 20.3214 18.2321V19.7589H18.5357V21.8304H20.3214V27.1429H15.5714C14.8631 27.1429 14.256 26.8899 13.75 26.3839C13.25 25.8839 13 25.2798 13 24.5714V16C13 15.2917 13.25 14.6875 13.75 14.1875C14.256 13.6815 14.8631 13.4286 15.5714 13.4286H24.1429Z" fill="white"/>
</svg>
