<svg width="38" height="38" viewBox="0 0 38 38" fill="none" xmlns="http://www.w3.org/2000/svg">
<path d="M37.5 19C37.5 29.2173 29.2173 37.5 19 37.5C8.78273 37.5 0.5 29.2173 0.5 19C0.5 8.78273 8.78273 0.5 19 0.5C29.2173 0.5 37.5 8.78273 37.5 19Z" stroke="white"/>
<path d="M21.1429 24.6786C20.8929 23.244 20.4762 21.7619 19.8929 20.2321H19.875L19.8571 20.2411C19.7619 20.2768 19.6339 20.3274 19.4732 20.3929C19.3125 20.4524 19.0119 20.5982 18.5714 20.8304C18.131 21.0565 17.7232 21.3006 17.3482 21.5625C16.9732 21.8185 16.5833 22.1577 16.1786 22.5804C15.7738 23.003 15.4673 23.4435 15.2589 23.9018L15.125 23.8036C16.2202 24.6964 17.4643 25.1429 18.8571 25.1429C19.6429 25.1429 20.4048 24.9881 21.1429 24.6786ZM19.4911 19.2589C19.3661 18.9673 19.2083 18.6369 19.0179 18.2679C17.1667 18.8214 15.1637 19.0982 13.0089 19.0982C13.003 19.1399 13 19.2024 13 19.2857C13 20.0238 13.131 20.7292 13.3929 21.4018C13.6548 22.0685 14.0238 22.6667 14.5 23.1964C14.7976 22.6667 15.1637 22.1726 15.5982 21.7143C16.0387 21.25 16.4643 20.878 16.875 20.5982C17.2857 20.3185 17.6726 20.0774 18.0357 19.875C18.4048 19.6726 18.7024 19.5298 18.9286 19.4464L19.2589 19.3304C19.2827 19.3244 19.3214 19.3155 19.375 19.3036C19.4286 19.2857 19.4673 19.2708 19.4911 19.2589ZM18.5357 17.3661C17.8214 16.0982 17.0952 14.9732 16.3571 13.9911C15.5357 14.378 14.8393 14.9315 14.2679 15.6518C13.6964 16.372 13.3155 17.1815 13.125 18.0804C14.9226 18.0804 16.7262 17.8423 18.5357 17.3661ZM24.6429 20.2143C23.3929 19.8571 22.1756 19.7708 20.9911 19.9554C21.5089 21.378 21.8899 22.7738 22.1339 24.1429C22.7946 23.6964 23.3452 23.1339 23.7857 22.4554C24.2262 21.7708 24.5119 21.0238 24.6429 20.2143ZM17.4554 13.5982C17.4494 13.5982 17.4435 13.6012 17.4375 13.6071C17.4435 13.6012 17.4494 13.5982 17.4554 13.5982ZM22.7232 14.8929C21.622 13.9167 20.3333 13.4286 18.8571 13.4286C18.4048 13.4286 17.9435 13.4851 17.4732 13.5982C18.253 14.6101 18.9851 15.747 19.6696 17.0089C20.0804 16.8542 20.4673 16.6756 20.8304 16.4732C21.1935 16.2649 21.4792 16.0804 21.6875 15.9196C21.9018 15.7589 22.0982 15.5893 22.2768 15.4107C22.4554 15.2321 22.5655 15.1131 22.6071 15.0536C22.6548 14.9881 22.6935 14.9345 22.7232 14.8929ZM24.7143 19.2232C24.6964 17.8423 24.253 16.622 23.3839 15.5625L23.375 15.5714C23.3214 15.6429 23.2649 15.7173 23.2054 15.7946C23.1458 15.8661 23.0149 15.997 22.8125 16.1875C22.6161 16.378 22.4048 16.5595 22.1786 16.7321C21.9583 16.8988 21.6607 17.0923 21.2857 17.3125C20.9167 17.5268 20.5268 17.7173 20.1161 17.8839C20.2649 18.1994 20.3958 18.4821 20.5089 18.7321C20.5208 18.7619 20.5387 18.8125 20.5625 18.8839C20.5923 18.9554 20.6161 19.006 20.6339 19.0357C20.8482 19.006 21.0685 18.9851 21.2946 18.9732C21.5268 18.9613 21.747 18.9554 21.9554 18.9554C22.1637 18.9554 22.369 18.9613 22.5714 18.9732C22.7738 18.9792 22.9643 18.9911 23.1429 19.0089C23.3214 19.0208 23.4881 19.0357 23.6429 19.0536C23.8036 19.0714 23.9464 19.0923 24.0714 19.1161C24.2024 19.1339 24.3125 19.1518 24.4018 19.1696C24.4911 19.1815 24.5655 19.1935 24.625 19.2054L24.7143 19.2232ZM24.7946 15.8482C25.4077 16.8958 25.7143 18.0417 25.7143 19.2857C25.7143 20.5298 25.4077 21.6786 24.7946 22.7321C24.1815 23.7798 23.3482 24.6101 22.2946 25.2232C21.247 25.8363 20.1012 26.1429 18.8571 26.1429C17.6131 26.1429 16.4643 25.8363 15.4107 25.2232C14.3631 24.6101 13.5327 23.7798 12.9196 22.7321C12.3065 21.6786 12 20.5298 12 19.2857C12 18.0417 12.3065 16.8958 12.9196 15.8482C13.5327 14.7946 14.3631 13.9613 15.4107 13.3482C16.4643 12.7351 17.6131 12.4286 18.8571 12.4286C20.1012 12.4286 21.247 12.7351 22.2946 13.3482C23.3482 13.9613 24.1815 14.7946 24.7946 15.8482Z" fill="white"/>
</svg>
