<svg width="48" height="48" viewBox="0 0 48 48" fill="none" xmlns="http://www.w3.org/2000/svg">
<path d="M39.3601 25.2803V38.0803C39.3601 40.201 37.6408 41.9203 35.5201 41.9203H12.4801C10.3593 41.9203 8.64008 40.201 8.64008 38.0803V25.2803" stroke="#1D8CF8" stroke-width="2" stroke-linecap="round" stroke-linejoin="round"/>
<path fill-rule="evenodd" clip-rule="evenodd" d="M4.80005 13.7603H43.2001V20.1603H4.80005V13.7603Z" stroke="#1D8CF8" stroke-width="2" stroke-linecap="round" stroke-linejoin="round"/>
<path fill-rule="evenodd" clip-rule="evenodd" d="M12.48 9.92008C12.48 7.7993 14.1993 6.08008 16.32 6.08008C22.0007 6.08008 24 13.7601 24 13.7601H16.32C14.1993 13.7601 12.48 12.0409 12.48 9.92008Z" stroke="#1D8CF8" stroke-width="2" stroke-linecap="round" stroke-linejoin="round"/>
<path fill-rule="evenodd" clip-rule="evenodd" d="M35.5201 9.92008C35.5201 7.7993 33.8008 6.08008 31.6801 6.08008C25.9994 6.08008 24.0001 13.7601 24.0001 13.7601H31.6801C33.8008 13.7601 35.5201 12.0409 35.5201 9.92008V9.92008Z" stroke="#1D8CF8" stroke-width="2" stroke-linecap="round" stroke-linejoin="round"/>
<path fill-rule="evenodd" clip-rule="evenodd" d="M20.16 13.7603H27.84V41.9203H20.16V13.7603Z" stroke="#1D8CF8" stroke-width="2" stroke-linecap="round" stroke-linejoin="round"/>
</svg>
