<svg width="48" height="48" viewBox="0 0 48 48" fill="none" xmlns="http://www.w3.org/2000/svg">
<path d="M22.72 32.96H4.79999V4.80005H43.2V22.72" stroke="#E14ECA" stroke-width="2" stroke-linecap="round" stroke-linejoin="round"/>
<path fill-rule="evenodd" clip-rule="evenodd" d="M24 22.72C26.1207 22.72 27.84 21.0008 27.84 18.88C27.84 16.7593 26.1207 15.04 24 15.04C21.8792 15.04 20.16 16.7593 20.16 18.88C20.16 21.0008 21.8792 22.72 24 22.72Z" stroke="#E14ECA" stroke-width="2" stroke-linecap="round" stroke-linejoin="round"/>
<path d="M38.08 20.1602V15.0402C35.1885 15.0402 32.96 12.8117 32.96 9.92017H15.04C15.04 12.8117 12.8115 15.0402 9.91998 15.0402V22.7202C12.8115 22.7202 15.04 24.9486 15.04 27.8402H22.72" stroke="#E14ECA" stroke-width="2" stroke-linecap="round" stroke-linejoin="round"/>
<path d="M27.84 29.1201V34.2401C27.84 36.3611 31.2781 38.0801 35.52 38.0801C39.7619 38.0801 43.2 36.3611 43.2 34.2401V29.1201" stroke="#E14ECA" stroke-width="2" stroke-linecap="round" stroke-linejoin="round"/>
<path d="M27.84 34.24V39.36C27.84 41.481 31.2781 43.2 35.52 43.2C39.7619 43.2 43.2 41.481 43.2 39.36V34.24" stroke="#E14ECA" stroke-width="2" stroke-linecap="round" stroke-linejoin="round"/>
<path fill-rule="evenodd" clip-rule="evenodd" d="M35.52 32.96C39.7615 32.96 43.2 31.2408 43.2 29.12C43.2 26.9993 39.7615 25.28 35.52 25.28C31.2784 25.28 27.84 26.9993 27.84 29.12C27.84 31.2408 31.2784 32.96 35.52 32.96Z" stroke="#E14ECA" stroke-width="2" stroke-linecap="round" stroke-linejoin="round"/>
</svg>
