<svg width="38" height="38" viewBox="0 0 38 38" fill="none" xmlns="http://www.w3.org/2000/svg">
<path d="M37.5 19C37.5 29.2173 29.2173 37.5 19 37.5C8.78273 37.5 0.5 29.2173 0.5 19C0.5 8.78273 8.78273 0.5 19 0.5C29.2173 0.5 37.5 8.78273 37.5 19Z" stroke="white"/>
<path d="M26.4643 15.9286C26.0655 16.5119 25.5833 17.0089 25.0179 17.4196C25.0238 17.503 25.0268 17.628 25.0268 17.7946C25.0268 18.5685 24.9137 19.3423 24.6875 20.1161C24.4613 20.8839 24.1161 21.622 23.6518 22.3304C23.1935 23.0387 22.6458 23.6667 22.0089 24.2143C21.372 24.756 20.6042 25.1905 19.7054 25.5179C18.8065 25.8393 17.8452 26 16.8214 26C15.2083 26 13.7321 25.5685 12.3929 24.7054C12.6012 24.7292 12.8333 24.7411 13.0893 24.7411C14.4286 24.7411 15.622 24.3304 16.6696 23.5089C16.0446 23.497 15.4851 23.3065 14.9911 22.9375C14.497 22.5625 14.1577 22.0863 13.9732 21.5089C14.1696 21.5387 14.3512 21.5536 14.5179 21.5536C14.7738 21.5536 15.0268 21.5208 15.2768 21.4554C14.6101 21.3185 14.0565 20.9881 13.6161 20.4643C13.1815 19.9345 12.9643 19.3214 12.9643 18.625V18.5893C13.369 18.8155 13.8036 18.9375 14.2679 18.9554C13.875 18.6935 13.5625 18.3512 13.3304 17.9286C13.0982 17.506 12.9821 17.0476 12.9821 16.5536C12.9821 16.0298 13.1131 15.5446 13.375 15.0982C14.0952 15.9851 14.9702 16.6964 16 17.2321C17.0357 17.7619 18.1429 18.0565 19.3214 18.1161C19.2738 17.8899 19.25 17.6696 19.25 17.4554C19.25 16.6577 19.5298 15.9792 20.0893 15.4196C20.6548 14.8542 21.3363 14.5714 22.1339 14.5714C22.9673 14.5714 23.6696 14.875 24.2411 15.4821C24.8899 15.3571 25.5 15.125 26.0714 14.7857C25.8512 15.4702 25.4286 16 24.8036 16.375C25.3571 16.3155 25.9107 16.1667 26.4643 15.9286Z" fill="white"/>
</svg>
